# xmcd
#
# Track frame offsets:
#	150
#	13347
#	24401
#	49807
#	70323
#	80139
#	86461
#	132509
#	147428
#	184148
#	209834
#	229154
#	256525
#
# Disc length: 3462 seconds
#
# Revision: 1
# Processed by: cddbd v1.5.2PL0 Copyright (c) Steve Scherf et al.
# Submitted via: audiograbber 1.83.01
#
DISCID=be0d840d
DTITLE=Grateful Dead - 70-07-10A Fillmore East, New York, NY
DYEAR=1900
DGENRE=
TTITLE0=Good Lovin'
TTITLE1=Drums
TTITLE2=China Cat Sunflower
TTITLE3=I Know You Rider
TTITLE4=Good Lovin'
TTITLE5=Crowd Noise
TTITLE6=Not Fade Away
TTITLE7=Hard To Handle
TTITLE8=Easy Wind
TTITLE9=Candyman
TTITLE10=Let Me In 83968
TTITLE11=Attics Of My Life
TTITLE12=Friend Of The Devil
EXTD=
EXTT0=
EXTT1=
EXTT2=
EXTT3=
EXTT4=
EXTT5=
EXTT6=
EXTT7=
EXTT8=
EXTT9=
EXTT10=
EXTT11=
EXTT12=
PLAYORDER=
